<?xml version="1.0" encoding="utf-8"?>
<!-- Generator: Adobe Illustrator 25.3.1, SVG Export Plug-In . SVG Version: 6.00 Build 0)  -->
<svg version="1.1" id="Camada_1" xmlns="http://www.w3.org/2000/svg" xmlns:xlink="http://www.w3.org/1999/xlink" x="0px" y="0px"
	 viewBox="0 0 31.88 32" style="enable-background:new 0 0 31.88 32;" xml:space="preserve">
<style type="text/css">
	.st0{fill:url(#SVGID_1_);}
</style>
<g>
	<linearGradient id="SVGID_1_" gradientUnits="userSpaceOnUse" x1="2.0322" y1="15.9117" x2="41.4512" y2="15.9117">
		<stop  offset="0.158" style="stop-color:#FF9400"/>
		<stop  offset="0.7873" style="stop-color:#FF130E"/>
	</linearGradient>
	<path class="st0" d="M9.9,21.66v8.56H2.03v-5.77c0-0.66,0.46-1.23,1.1-1.36L9.9,21.66z M11.01,17.94c-0.64,0.14-1.1,0.71-1.1,1.36
		v2.35l1.94-0.41c0.87-0.18,1.68,0.48,1.68,1.36v7.61h3.97V16.56L11.01,17.94z M27.3,10.67l-8.7,1.85c-0.64,0.14-1.1,0.71-1.1,1.36
		v2.68l2.22-0.47c0.87-0.18,1.68,0.48,1.68,1.36v12.77h7.59V12.04C28.99,11.15,28.17,10.49,27.3,10.67z M29.03,5.46
		c0,2.13-1.73,3.86-3.86,3.86s-3.86-1.73-3.86-3.86s1.73-3.86,3.86-3.86S29.03,3.33,29.03,5.46z"/>
</g>
</svg>
