<?xml version="1.0" encoding="utf-8"?>
<!-- Generator: Adobe Illustrator 25.3.1, SVG Export Plug-In . SVG Version: 6.00 Build 0)  -->
<svg version="1.1" id="Camada_1" xmlns="http://www.w3.org/2000/svg" xmlns:xlink="http://www.w3.org/1999/xlink" x="0px" y="0px"
	 viewBox="0 0 56 49" style="enable-background:new 0 0 56 49;" xml:space="preserve">
<style type="text/css">
	.st0{fill:url(#SVGID_1_);}
</style>
<g>
	<linearGradient id="SVGID_1_" gradientUnits="userSpaceOnUse" x1="3.3907" y1="24.5" x2="69.9481" y2="24.5">
		<stop  offset="0.158" style="stop-color:#FF9400"/>
		<stop  offset="0.7873" style="stop-color:#FF130E"/>
	</linearGradient>
	<path class="st0" d="M16.68,34.2v14.46H3.39v-9.73c0-1.11,0.78-2.07,1.87-2.3L16.68,34.2z M18.54,27.93
		c-1.09,0.23-1.87,1.19-1.87,2.3v3.98l3.27-0.69c1.46-0.31,2.84,0.81,2.84,2.3v12.85h6.7V25.6L18.54,27.93z M46.06,15.66
		l-14.69,3.12c-1.09,0.23-1.87,1.19-1.87,2.3v4.53l3.74-0.79c1.46-0.31,2.84,0.81,2.84,2.3v21.55H48.9V17.96
		C48.9,16.46,47.52,15.35,46.06,15.66z M48.97,6.85c0,3.6-2.92,6.51-6.51,6.51s-6.51-2.92-6.51-6.51s2.92-6.51,6.51-6.51
		S48.97,3.25,48.97,6.85z"/>
</g>
</svg>
