<svg id="Camada_1" data-name="Camada 1" xmlns="http://www.w3.org/2000/svg" viewBox="0 0 218.43 91.7"><path d="M5.54,4.12a9.56,9.56,0,0,1,7.12-2.67q4.75,0,7.38,2.67a9.06,9.06,0,0,1,2.64,6.63A8.93,8.93,0,0,1,20,17.34,9.77,9.77,0,0,1,12.79,20a9.8,9.8,0,0,1-7.25-2.64A8.93,8.93,0,0,1,2.9,10.75,9.06,9.06,0,0,1,5.54,4.12ZM22,92.5v-66H3.56v66Z" transform="translate(-2.9 -1.45)"/><path d="M37.34,84.26a26.59,26.59,0,0,1-9.88-21.43V56.24a26.59,26.59,0,0,1,9.88-21.43,35.08,35.08,0,0,1,23.14-8.24q15.83,0,26.31,11.21L73.6,47.67q-5.92-5.94-13.18-5.94A15.35,15.35,0,0,0,48.88,47a17.72,17.72,0,0,0-4.94,12.52,18.41,18.41,0,0,0,4.61,12.53,15,15,0,0,0,11.87,5.28q7.24,0,13.18-5.94l13.19,9.89Q76.25,92.5,60.42,92.5A35,35,0,0,1,37.34,84.26Z" transform="translate(-2.9 -1.45)"/><path d="M98.49,83.5q-9.63-9.66-9.63-24t9.63-24q9.62-9.63,24-9.63t24,9.63q9.63,9.63,9.63,24t-9.63,24q-9.63,9.63-24,9.63T98.49,83.5Zm23.93-6.3a15.86,15.86,0,0,0,12.19-5,17.76,17.76,0,0,0,4.68-12.56A17.86,17.86,0,0,0,134.61,47a15.92,15.92,0,0,0-12.26-5.08A15.75,15.75,0,0,0,110.22,47a17.86,17.86,0,0,0-4.68,12.59,17.76,17.76,0,0,0,4.68,12.56A15.88,15.88,0,0,0,122.42,77.2Z" transform="translate(-2.9 -1.45)"/><path d="M179.8,50.57V92.5H161.34v-64l18.46-2v6a23,23,0,0,1,15.82-5.94q12.52,0,19.12,7.58a25.84,25.84,0,0,1,6.6,17.47V92.5H202.88V56.24q0-6.6-3.3-10.22t-10-3.82Q183.89,42.59,179.8,50.57Z" transform="translate(-2.9 -1.45)"/></svg>